<svg width="44" height="44" viewBox="0 0 44 44" fill="none" xmlns="http://www.w3.org/2000/svg">
<path d="M28.3214 7L27.7857 7.72651C31.091 8.54885 34.1814 10.0339 36.8571 12.0855C31.2408 9.0544 24.771 7.8422 18.3929 8.62599H17.75C14.8768 9.04833 12.0917 9.91258 9.5 11.1861C8.14286 11.7742 7.32143 12.1893 7.32143 12.1893C10.1542 9.97002 13.4597 8.38675 17 7.55353L16.6072 7.10379C12.8538 7.30044 9.25231 8.60417 6.28571 10.8401C2.93587 17.2865 1.12919 24.3815 1 31.5974C2.26726 33.3206 3.95355 34.7146 5.9096 35.656C7.86564 36.5973 10.0311 37.057 12.2143 36.9944L14.6786 34.0537C12.0954 33.3917 9.83344 31.8738 8.28572 29.7639C8.61934 29.9785 8.96512 30.1749 9.32143 30.352V30.352H9.64286C10.5005 30.825 11.3963 31.2299 12.3214 31.5629C14.064 32.2379 15.8701 32.7477 17.7143 33.0851C20.8655 33.6561 24.0988 33.6561 27.25 33.0851C29.0999 32.9144 30.9222 32.5311 32.6786 31.9434C34.1581 31.4042 35.5714 30.708 36.8929 29.8677C35.2537 31.9811 32.9042 33.4739 30.25 34.0883C31.3571 35.4376 32.6786 36.9598 32.6786 36.9598C34.8835 37.0166 37.0691 36.5479 39.0432 35.5948C41.0173 34.6417 42.7195 33.2334 44 31.4937C43.8708 24.2777 42.0641 17.1827 38.7143 10.7363C35.728 8.48716 32.0995 7.18269 28.3214 7V7ZM15.6071 27.7573C15.0815 27.807 14.551 27.7495 14.0497 27.5887C13.5483 27.4278 13.0873 27.1672 12.6961 26.8234C12.305 26.4797 11.9924 26.0605 11.7785 25.5927C11.5647 25.125 11.4542 24.6191 11.4542 24.1075C11.4542 23.5959 11.5647 23.09 11.7785 22.6223C11.9924 22.1545 12.305 21.7353 12.6961 21.3916C13.0873 21.0478 13.5483 20.7872 14.0497 20.6263C14.551 20.4655 15.0815 20.408 15.6071 20.4577V20.4577C16.5432 20.5461 17.4117 20.9688 18.0436 21.6434C18.6755 22.3181 19.0256 23.1965 19.0256 24.1075C19.0256 25.0185 18.6755 25.8969 18.0436 26.5716C17.4117 27.2463 16.5432 27.669 15.6071 27.7573V27.7573ZM32.75 24.7475C32.6836 25.5321 32.3783 26.2799 31.873 26.8964C31.3676 27.5128 30.6848 27.9702 29.911 28.2106C29.1372 28.451 28.3072 28.4637 27.5259 28.247C26.7447 28.0303 26.0474 27.5939 25.5222 26.9932C24.9971 26.3925 24.6677 25.6543 24.5758 24.8722C24.4839 24.0901 24.6336 23.2991 25.0059 22.5994C25.3783 21.8997 25.9565 21.3227 26.6675 20.9415C27.3785 20.5602 28.1902 20.3919 29 20.4577V20.4577C30.0358 20.5026 31.0113 20.9424 31.7138 21.6812C32.4163 22.42 32.7887 23.3979 32.75 24.4016V24.7475Z" fill="#323232"/>
</svg>
