<svg width="16" height="16" viewBox="0 0 16 16" fill="none" xmlns="http://www.w3.org/2000/svg">
<g clip-path="url(#clip0_744_3834)">
<path d="M0.00195312 7.98697C0.00195312 3.5733 3.59327 -0.00133569 8.02466 3.74404e-07C12.42 3.74404e-07 16.006 3.60736 16.002 8.01637C15.9973 12.4621 12.4046 16.0327 7.91047 15.996C3.53051 15.9673 0.00195312 12.4087 0.00195312 7.98697ZM4.95888 5.87266C4.74786 7.28213 4.74786 8.71519 4.95888 10.1247H11.043C11.2544 8.71522 11.2544 7.28211 11.043 5.87266H4.95888ZM5.15921 4.79446H10.8106C10.8084 4.75482 10.8026 4.71546 10.7933 4.67688C10.6277 4.1959 10.4854 3.70557 10.2884 3.23728C10.0213 2.60465 9.66272 2.02547 9.14185 1.56186C8.48609 0.976661 7.77424 0.910526 7.09444 1.37681C6.9942 1.44645 6.89913 1.52326 6.80996 1.60661C6.20429 2.16642 5.83367 2.87587 5.54118 3.63208C5.39694 4.00818 5.28943 4.39765 5.15988 4.79579L5.15921 4.79446ZM5.18726 11.2075C5.19 11.2472 5.19603 11.2865 5.2053 11.3251C5.37024 11.8061 5.51314 12.2964 5.70946 12.7647C5.97658 13.3927 6.32783 13.9672 6.84469 14.4275C7.18526 14.7301 7.5679 14.9479 8.04002 14.9332C8.48342 14.9191 8.84536 14.708 9.16456 14.4181C9.78826 13.8509 10.1662 13.1255 10.4614 12.3532C10.603 11.9831 10.7111 11.6003 10.8394 11.2075H5.18726ZM14.5856 10.1287C14.5956 10.1053 14.6056 10.0859 14.6123 10.0652C15.0334 8.73403 15.0392 7.30611 14.629 5.97153C14.5996 5.87199 14.5422 5.86464 14.4587 5.86531C13.809 5.86531 13.1599 5.86531 12.5101 5.86531H12.1095C12.3128 7.27893 12.3128 8.71439 12.1095 10.128L14.5856 10.1287ZM3.84703 5.87266C3.8269 5.86963 3.80661 5.86785 3.78626 5.86731C3.03167 5.86731 2.27708 5.86731 1.52182 5.86397C1.41965 5.86397 1.38826 5.90873 1.36689 5.99023C1.08831 6.88297 1.00138 7.82452 1.1118 8.7532C1.16923 9.21682 1.28409 9.67375 1.3709 10.1233H3.8457C3.80763 9.40988 3.74152 8.70711 3.74152 8.00434C3.74152 7.30157 3.80829 6.59146 3.84703 5.87266ZM10.6303 1.58991L10.5996 1.62198L10.6611 1.71884C11.2435 2.61876 11.6593 3.61623 11.8884 4.66352C11.9138 4.77575 11.9552 4.80448 12.0614 4.80381C12.7165 4.7998 13.3716 4.80381 14.0267 4.80381C14.0567 4.80381 14.0868 4.80047 14.1388 4.79646C13.3295 3.30341 12.1649 2.24258 10.6303 1.59192V1.58991ZM10.5989 14.4254C12.1676 13.7574 13.3368 12.6973 14.1435 11.2022C13.4163 11.2022 12.7225 11.2022 12.0287 11.2022C11.9325 11.2022 11.9131 11.2456 11.8951 11.3278C11.7582 11.9789 11.5429 12.611 11.254 13.2103C11.057 13.6118 10.8307 13.9999 10.5989 14.4275V14.4254ZM5.3709 14.4114L5.40028 14.3787L5.33818 14.2825C4.75461 13.3833 4.33792 12.3863 4.10813 11.3391C4.08342 11.2256 4.04135 11.1995 3.93451 11.2002C3.28543 11.2042 2.63567 11.2002 1.98592 11.2002C1.95053 11.2002 1.91915 11.2055 1.85971 11.2096C2.67307 12.7033 3.83635 13.7628 5.3709 14.4134V14.4114ZM1.85371 4.80381C2.58826 4.80381 3.29277 4.80381 3.99661 4.7978C4.03267 4.7978 4.08876 4.71964 4.10012 4.66953C4.33483 3.62942 4.75026 2.63861 5.3275 1.74222C5.35354 1.70214 5.37557 1.66006 5.39895 1.61931C3.83701 2.24057 2.67307 3.30141 1.85371 4.80381Z" fill="#323232"/>
</g>
<defs>
<clipPath id="clip0_744_3834">
<rect width="16" height="16" fill="white"/>
</clipPath>
</defs>
</svg>
