<svg width="44" height="44" viewBox="0 0 44 44" fill="none" xmlns="http://www.w3.org/2000/svg">
<path d="M31.112 10.882C30.571 10.882 30.0521 11.0969 29.6695 11.4795C29.2869 11.8621 29.072 12.381 29.072 12.922C29.072 13.463 29.2869 13.9819 29.6695 14.3645C30.0521 14.7471 30.571 14.962 31.112 14.962C31.653 14.962 32.1719 14.7471 32.5545 14.3645C32.9371 13.9819 33.152 13.463 33.152 12.922C33.152 12.381 32.9371 11.8621 32.5545 11.4795C32.1719 11.0969 31.653 10.882 31.112 10.882V10.882ZM38.932 14.996C38.8832 13.5842 38.6077 12.1893 38.116 10.865C37.6809 9.73279 37.0085 8.70681 36.144 7.856C35.3061 6.97991 34.276 6.31063 33.135 5.901C31.8164 5.39141 30.4175 5.12085 29.004 5.102C27.202 5 26.624 5 22 5C17.376 5 16.798 5 14.996 5.102C13.5825 5.12085 12.1836 5.39141 10.865 5.901C9.72513 6.31285 8.69549 6.98182 7.856 7.856C6.97599 8.69065 6.30607 9.72176 5.90101 10.865C5.38823 12.1827 5.11755 13.5821 5.10201 14.996C5.00001 16.798 5 17.376 5 22C5 26.624 5.00001 27.202 5.10201 29.004C5.12086 30.4175 5.39142 31.8164 5.90101 33.135C6.31064 34.276 6.97991 35.3061 7.856 36.144C8.71473 37.0191 9.76107 37.6876 10.916 38.099C12.2387 38.5941 13.6351 38.8642 15.047 38.898C16.849 39 17.427 39 22.051 39C26.675 39 27.253 39 29.055 38.898C30.4668 38.8626 31.8628 38.5926 33.186 38.099C34.3206 37.6766 35.3481 37.0091 36.195 36.144C37.0375 35.2854 37.6918 34.2606 38.116 33.135C38.5961 31.8087 38.8601 30.414 38.898 29.004C38.898 27.202 39 26.624 39 22C39 17.376 39.034 16.798 38.932 14.996V14.996ZM35.872 28.8C35.8497 29.8781 35.6545 30.9457 35.294 31.962C35.014 32.6975 34.5792 33.3642 34.019 33.917C33.4617 34.4717 32.7963 34.9057 32.064 35.192C31.0477 35.5525 29.9801 35.7477 28.902 35.77C27.202 35.77 26.573 35.872 22.102 35.872C17.631 35.872 17.002 35.872 15.302 35.77C14.1817 35.789 13.0663 35.6165 12.004 35.26C11.3019 34.964 10.6661 34.5305 10.134 33.985C9.56976 33.4389 9.13924 32.7698 8.87601 32.03C8.45713 31.0029 8.22677 29.9088 8.19601 28.8C8.19601 27.1 8.094 26.471 8.094 22C8.094 17.529 8.09401 16.9 8.19601 15.2C8.19593 14.0961 8.39757 13.0014 8.79101 11.97C9.07891 11.2462 9.54007 10.6041 10.134 10.1C10.645 9.50948 11.2848 9.04419 12.004 8.74C13.0391 8.36184 14.132 8.16627 15.234 8.162C16.934 8.162 17.563 8.06 22.034 8.06C26.505 8.06 27.134 8.06 28.834 8.162C29.9138 8.16756 30.9841 8.36321 31.996 8.74C32.7704 9.02315 33.4645 9.48981 34.019 10.1C34.5736 10.6243 35.0085 11.2622 35.294 11.97C35.6657 13.0068 35.8611 14.0986 35.872 15.2C35.872 16.9 35.974 17.529 35.974 22C35.974 26.471 35.957 27.1 35.872 28.8V28.8ZM22.034 13.279C20.3099 13.2824 18.6254 13.7967 17.1935 14.757C15.7616 15.7173 14.6464 17.0805 13.989 18.6744C13.3315 20.2682 13.1612 22.0212 13.4996 23.7118C13.8381 25.4024 14.67 26.9547 15.8903 28.1727C17.1107 29.3906 18.6646 30.2195 20.3559 30.5547C22.0471 30.8898 23.7997 30.7161 25.3923 30.0555C26.9849 29.3949 28.3459 28.2772 29.3034 26.8434C30.261 25.4096 30.772 23.7241 30.772 22C30.7743 20.8527 30.5496 19.7162 30.1111 18.656C29.6726 17.5958 29.0288 16.6328 28.2167 15.8223C27.4046 15.0118 26.4403 14.3699 25.3793 13.9334C24.3182 13.4969 23.1813 13.2745 22.034 13.279V13.279ZM22.034 27.661C20.9144 27.661 19.8199 27.329 18.8889 26.7069C17.958 26.0849 17.2324 25.2008 16.8039 24.1664C16.3755 23.132 16.2634 21.9937 16.4818 20.8956C16.7002 19.7975 17.2394 18.7888 18.0311 17.9971C18.8228 17.2054 19.8315 16.6662 20.9296 16.4478C22.0277 16.2293 23.166 16.3415 24.2004 16.7699C25.2348 17.1984 26.1189 17.924 26.741 18.8549C27.363 19.7859 27.695 20.8804 27.695 22C27.6905 23.5 27.0927 24.9373 26.032 25.998C24.9713 27.0587 23.534 27.6565 22.034 27.661V27.661Z" fill="#323232"/>
</svg>
