<svg width="44" height="44" viewBox="0 0 44 44" fill="none" xmlns="http://www.w3.org/2000/svg">
<path d="M40.8644 11.7126C40.7242 11.5855 40.5157 11.5697 40.358 11.6742C39.6606 12.1369 38.7206 12.3717 37.9394 12.491C38.8735 11.7291 39.963 10.5314 39.9558 8.98809C39.9551 8.83286 39.8675 8.69098 39.7289 8.62093C39.5903 8.55088 39.4241 8.56446 39.2986 8.6559C37.8828 9.68911 35.8534 10.2318 35.1103 10.4051C34.5848 9.53919 32.7776 7 29.654 7C29.4793 7 29.301 7.00827 29.1242 7.02445C25.2424 7.38146 23.3614 9.65142 22.4671 11.4929C21.9017 12.6571 21.6534 13.7844 21.5446 14.5289C20.929 13.9923 19.8553 13.1757 18.257 12.3586C15.8154 11.11 11.6219 9.62177 5.51003 9.62177C4.91581 9.62177 4.30541 9.63583 3.69572 9.66359C3.55703 9.66997 3.43074 9.74546 3.3595 9.86465C3.28827 9.98385 3.28165 10.1309 3.34202 10.256C4.64647 12.9651 7.45253 14.5564 9.27925 15.3443C8.27699 15.6099 7.2061 16.1281 6.87071 16.9444C6.70048 17.3588 6.65677 18.0101 7.41508 18.7594C8.52838 19.8595 9.8372 20.5279 10.9904 20.9337C10.0869 21.0944 9.36549 21.3704 9.13158 21.8296C9.04262 22.0044 8.94114 22.3633 9.26153 22.8037C10.7974 24.9158 14.4786 25.737 16.111 25.871C15.9039 26.363 15.4726 27.162 14.6396 27.9532C12.8598 29.6436 10.0534 30.5372 6.52375 30.5373C6.52339 30.5373 6.52304 30.5373 6.52269 30.5373C5.56355 30.5373 4.53412 30.4724 3.46264 30.3441C3.28567 30.3231 3.11485 30.4175 3.03912 30.5791C2.9634 30.7406 2.99978 30.9325 3.12938 31.055C7.7826 35.4556 13.0651 37.7821 18.406 37.7829C18.4071 37.7829 18.4078 37.7829 18.4087 37.7829C24.2885 37.7829 30.0455 34.8919 33.8084 30.0494C37.1596 25.7369 38.4432 20.5751 37.3596 15.828C38.0835 15.5181 39.6815 14.6019 40.9516 12.2128C41.0404 12.0458 41.0045 11.8398 40.8644 11.7126Z" fill="#7D0200"/>
</svg>
