<svg width="301" height="300" viewBox="0 0 301 300" fill="none" xmlns="http://www.w3.org/2000/svg">
<path d="M297.76 65.4492C256.515 106.739 214.915 148.339 174.113 189.097C173.626 189.584 173.005 189.805 172.341 189.805L136.456 189.761C135.703 189.761 133.709 189.761 133.089 188.255C132.513 186.882 133.709 185.464 134.64 184.534C165.474 153.699 196.308 122.865 227.098 92.0305C227.674 91.4546 227.541 91.3217 227.408 91.1445L110.451 90.9672L83.249 118.169C82.7617 118.656 82.1414 118.922 81.4769 118.922H47.9844C46.8768 118.922 45.7693 118.7 44.6617 118.302C43.4212 117.814 43.0668 116.928 42.9339 116.485C42.6238 115.068 43.6871 113.827 44.1744 113.34C61.5409 95.8405 79.2618 78.1196 96.8941 60.7089C97.3371 60.2215 98.0016 60 98.6661 60C164.544 60.0443 230.377 60.0443 296.166 60.0443C297.406 60.0443 298.381 60.6202 298.779 61.5949C299.222 62.7467 298.824 64.3416 297.76 65.4492ZM263.515 182.894C262.895 181.432 260.99 181.211 259.572 181.211L225.282 180.945C224.662 180.945 224.041 181.167 223.598 181.61C214.827 189.54 205.656 198.489 195.555 209.033C174.334 208.59 152.803 208.678 131.937 208.723C115.324 208.767 98.1345 208.811 81.2997 208.59C80.2807 208.59 79.3504 208.501 78.5972 208.457C108.989 178.11 139.867 147.32 170.391 116.973C171.632 115.732 173.227 113.872 172.518 112.144C171.809 110.46 169.461 110.239 167.733 110.239C156.082 110.194 144.608 110.194 133.532 110.239C132.867 110.239 132.203 110.505 131.76 110.948L8.24527 234.462C7.27062 235.437 6.07446 236.899 6.65038 238.361C7.27062 239.823 9.21991 240 10.5933 240H207.738C208.403 240 209.067 239.734 209.51 239.247L261.743 187.014C262.806 185.951 264.135 184.401 263.515 182.894Z" fill="white"/>
</svg>
