<svg width="61" height="60" viewBox="0 0 61 60" fill="none" xmlns="http://www.w3.org/2000/svg">
<g clip-path="url(#clip0_1341_12069)">
<path d="M59.9513 13.0898C51.7022 21.3478 43.3823 29.6677 35.2218 37.8193C35.1243 37.9168 35.0003 37.9611 34.8674 37.9611L27.6904 37.9523C27.5398 37.9523 27.1411 37.9523 27.017 37.651C26.9018 37.3763 27.1411 37.0928 27.3271 36.9067C33.494 30.7398 39.6609 24.573 45.8189 18.4061C45.9341 18.2909 45.9075 18.2643 45.8809 18.2289L22.4893 18.1934L17.049 23.6338C16.9516 23.7312 16.8275 23.7844 16.6946 23.7844H9.99609C9.77458 23.7844 9.55307 23.7401 9.33156 23.6604C9.08347 23.5629 9.01259 23.3857 8.986 23.2971C8.92398 23.0135 9.13663 22.7654 9.2341 22.668C12.7074 19.1681 16.2516 15.6239 19.778 12.1418C19.8666 12.0443 19.9995 12 20.1324 12C33.3079 12.0089 46.4746 12.0089 59.6323 12.0089C59.8804 12.0089 60.0753 12.124 60.1551 12.319C60.2437 12.5493 60.1639 12.8683 59.9513 13.0898ZM53.1022 36.5789C52.9781 36.2865 52.5971 36.2422 52.3136 36.2422L45.4556 36.189C45.3316 36.189 45.2075 36.2333 45.1189 36.3219C43.3645 37.908 41.5304 39.6977 39.5102 41.8065C35.2661 41.7179 30.9599 41.7357 26.7866 41.7445C23.464 41.7534 20.0261 41.7622 16.6592 41.7179C16.4554 41.7179 16.2693 41.7002 16.1187 41.6914C22.1969 35.622 28.3727 29.4639 34.4775 23.3945C34.7256 23.1464 35.0446 22.7743 34.9028 22.4288C34.761 22.0921 34.2914 22.0477 33.9459 22.0477C31.6156 22.0389 29.3207 22.0389 27.1056 22.0477C26.9727 22.0477 26.8398 22.1009 26.7512 22.1895L2.04827 46.8924C1.85334 47.0874 1.61411 47.3798 1.7293 47.6722C1.85334 47.9646 2.2432 48 2.51787 48H41.9469C42.0798 48 42.2127 47.9468 42.3013 47.8494L52.7478 37.4029C52.9604 37.1902 53.2262 36.8801 53.1022 36.5789Z" fill="white"/>
</g>
<defs>
<clipPath id="clip0_1341_12069">
<rect width="60" height="60" fill="white" transform="translate(0.5)"/>
</clipPath>
</defs>
</svg>
