<svg width="184" height="31" viewBox="0 0 184 31" fill="none" xmlns="http://www.w3.org/2000/svg">
<path d="M48.5434 1.40819C41.6692 8.28981 34.7359 15.2231 27.9355 22.0161C27.8543 22.0973 27.7509 22.1342 27.6401 22.1342L21.6593 22.1269C21.5338 22.1269 21.2015 22.1269 21.0982 21.8758C21.0022 21.6469 21.2015 21.4106 21.3566 21.2556C26.4956 16.1165 31.6347 10.9775 36.7664 5.83842C36.8624 5.74243 36.8402 5.72028 36.8181 5.69074L17.3251 5.6612L12.7915 10.1948C12.7103 10.276 12.6069 10.3203 12.4961 10.3203H6.91406C6.72947 10.3203 6.54488 10.2834 6.36029 10.217C6.15354 10.1357 6.09447 9.98806 6.07232 9.91423C6.02064 9.67795 6.19784 9.4712 6.27906 9.38998C9.17348 6.47341 12.127 3.51994 15.0657 0.618142C15.1395 0.536921 15.2503 0.5 15.361 0.5C26.3406 0.507384 37.3128 0.50738 48.2776 0.50738C48.4843 0.50738 48.6468 0.603372 48.7132 0.765814C48.7871 0.95779 48.7206 1.2236 48.5434 1.40819ZM42.8358 20.9824C42.7324 20.7387 42.4149 20.7018 42.1786 20.7018L36.4637 20.6575C36.3603 20.6575 36.2569 20.6944 36.1831 20.7683C34.7211 22.09 33.1927 23.5815 31.5092 25.3388C27.9724 25.2649 24.3839 25.2797 20.9062 25.2871C18.1373 25.2945 15.2724 25.3019 12.4666 25.265C12.2968 25.265 12.1417 25.2502 12.0162 25.2428C17.0814 20.185 22.2279 15.0533 27.3152 9.99545C27.522 9.7887 27.7878 9.47859 27.6697 9.19063C27.5515 8.91004 27.1602 8.87312 26.8722 8.87312C24.9303 8.86574 23.0179 8.86574 21.172 8.87312C21.0612 8.87312 20.9505 8.91743 20.8767 8.99126L0.290878 29.577C0.128436 29.7395 -0.0709241 29.9831 0.0250641 30.2268C0.128436 30.4705 0.453319 30.5 0.682213 30.5H33.5397C33.6505 30.5 33.7612 30.4557 33.8351 30.3745L42.5404 21.6691C42.7177 21.4919 42.9392 21.2334 42.8358 20.9824Z" fill="white"/>
<path d="M63.3846 24.9697H49.3777L51.0022 20.82H51.0317L63.6209 9.97338H55.1961L56.8205 5.82373H70.8569L69.2325 9.97338L56.6433 20.82H65.0164L63.3846 24.9697Z" fill="white"/>
<path d="M89.1242 5.83105L80.9874 15.4816L81.6815 24.9696H76.631L76.1289 17.9551H74.0319L71.2926 24.9696H66.5079L73.9507 5.83105H78.7354L75.6342 13.8055H77.3325L84.0812 5.83105H89.1242Z" fill="white"/>
<path d="M93.4068 24.9696L94.4552 20.7978H90.0177L87.8247 24.9696H82.7447L93.643 5.83105H102.415L98.4498 24.9696H93.4068ZM95.4004 10.4828L91.8636 17.2315H95.3487L97.0765 10.4828H95.4004Z" fill="white"/>
<path d="M113.203 5.83105L105.789 24.9696H100.975L108.418 5.83105H113.203Z" fill="white"/>
<path d="M166.247 5.83105L158.11 15.4816L158.804 24.9696H153.754L153.252 17.9551H151.155L148.415 24.9696H143.631L151.074 5.83105H155.858L152.757 13.8055H154.455L161.204 5.83105H166.247Z" fill="white"/>
<path d="M174.546 23.5889C172.9 24.7555 170.788 25.3462 168.218 25.3462C165.649 25.3462 163.995 24.7555 163.257 23.5667C162.718 22.7545 162.607 21.6248 162.91 20.1923C163.043 19.5574 163.264 18.8559 163.567 18.0954L168.322 5.83843H173.107L168.374 17.9846C168.211 18.4277 168.078 18.8854 167.975 19.3654C167.709 20.6059 168.322 21.2261 169.813 21.2261C170.699 21.2261 171.46 20.9972 172.088 20.532C172.715 20.0668 173.269 19.2177 173.749 17.9772L178.482 5.83105H183.266L178.511 18.088C177.537 20.5689 176.215 22.4001 174.546 23.5889Z" fill="white"/>
<path d="M140.419 5.64648C135.442 5.64648 132.031 8.02403 130.185 12.7718L128.125 18.088C127.822 18.8485 127.601 19.55 127.468 20.185C127.424 20.4065 127.401 20.6132 127.372 20.82H124.485H122.691H116.112L128.701 9.97334L130.325 5.82369H116.289L114.664 9.97334H123.089L110.5 20.82H110.471L108.846 24.9696H122.683H122.853H129.845C130.724 24.977 131.603 25.3388 132.769 25.3388C135.339 25.3388 137.458 24.7481 139.127 23.5594C140.795 22.3706 142.11 20.5468 143.055 18.0806L145.115 12.7644C145.381 12.0925 145.58 11.4648 145.706 10.8741C146.459 7.39642 144.694 5.64648 140.419 5.64648ZM140.574 11.9226C140.515 12.2032 140.419 12.5281 140.293 12.8825L138.307 17.9847C137.827 19.2251 137.281 20.0742 136.646 20.5394C136.018 20.9972 135.258 21.2335 134.372 21.2335C132.88 21.2335 132.267 20.6133 132.533 19.3728C132.636 18.8928 132.769 18.4351 132.932 17.992L134.918 12.8899C135.708 10.852 137.015 9.81827 138.846 9.78135C140.308 9.76659 140.877 10.4828 140.574 11.9226Z" fill="white"/>
</svg>
